<?xml version="1.0" standalone="no"?>
<!DOCTYPE svg PUBLIC "-//W3C//DTD SVG 1.1//EN" "http://www.w3.org/Graphics/SVG/1.1/DTD/svg11.dtd">
<svg xmlns="http://www.w3.org/2000/svg" xmlns:xlink="http://www.w3.org/1999/xlink" version="1.1" id="Layer_1" x="0px" y="0px" viewBox="0 0 682 407.4" style="enable-background:new 0 0 682 407.4;" xml:space="preserve" width="682" height="407.3999938964844">
<style type="text/css">
	.st0{fill:#ED2939;}
	.st1{fill-rule:evenodd;clip-rule:evenodd;fill:#FFFFFF;}
	.st2{fill-rule:evenodd;clip-rule:evenodd;}
	.st3{fill-rule:evenodd;clip-rule:evenodd;fill:#002395;}
	.st4{fill-rule:evenodd;clip-rule:evenodd;fill:#ED2939;}
	.st5{fill-rule:evenodd;clip-rule:evenodd;fill:#00B9E4;}
	.st6{fill:#3F9C35;}
</style>
<g>
	<path class="st0" d="M338,73.2c-12.2,3.4-39.7,11.8-49.9,16.2c-3.2,15.4-8.4,30.5-13.8,45.6c12.8-4.3,43.1-13.8,55.6-17.1   C337.5,100.9,340.3,85.9,338,73.2z"/>
	<g>
		<path d="M57.7,347.1v-20.6H71v3H61v6.2h8.2v3H61v8.5H57.7z"/>
		<path d="M93.2,347.1h-3.8l-5.9-8h-3.8v8h-3.3v-20.6H84c2.1,0,3.8,0.6,5.1,1.8c1.3,1.2,1.9,2.7,1.9,4.5c0,1.4-0.3,2.5-1,3.6    c-0.7,1-1.7,1.8-2.9,2.3L93.2,347.1z M79.7,329.4v6.8h4.2c1.1,0,2-0.3,2.7-0.9c0.7-0.6,1-1.4,1-2.5c0-1-0.3-1.8-1-2.5    c-0.7-0.6-1.5-0.9-2.7-0.9H79.7z"/>
		<path d="M98.6,347.1v-20.6h13.6v3h-10.3v5.3h7.7v2.9h-7.7v6.5h10.6v3H98.6z"/>
		<path d="M132.5,326.4h3.3v21h-1.1l-12.6-14.3v14h-3.3v-21h1.2l12.5,14.3V326.4z"/>
		<path d="M142.3,336.7c-0.1-2.9,1-5.5,3.2-7.6c2.2-2.1,4.7-3.1,7.7-3.1c1.9,0,3.6,0.4,5.2,1.3c1.6,0.9,2.8,2,3.7,3.5l-2.5,1.8    c-1.5-2.4-3.6-3.6-6.3-3.6c-2.1,0-3.9,0.7-5.3,2.2c-1.4,1.4-2.1,3.3-2.1,5.5c0,2.2,0.7,4,2.1,5.5c1.4,1.4,3.2,2.2,5.3,2.2    c2.7,0,4.8-1.2,6.3-3.6l2.5,1.8c-0.9,1.5-2.1,2.6-3.7,3.5c-1.6,0.8-3.3,1.3-5.2,1.3c-3,0-5.5-1-7.7-3.1    C143.3,342.2,142.3,339.7,142.3,336.7z"/>
		<path d="M168.3,347.1v-20.6h3.3v8.2H182v-8.2h3.3v20.6H182v-9.4h-10.4v9.4H168.3z"/>
		<path d="M192.4,338.5v-2.8h7.7v2.8H192.4z"/>
		<path d="M219.7,347.1l-1.5-3.4h-9.3l-1.5,3.4h-3.5l9.1-21h1.1l9.1,21H219.7z M217,340.8l-3.4-8.5l-3.5,8.5H217z"/>
		<path d="M233,344.1h11.5v3h-16.6v-0.9l11.4-16.8h-10.1v-3h15.3v0.9L233,344.1z"/>
		<path d="M250.4,347.1v-20.6h13.6v3h-10.3v5.3h7.7v2.9h-7.7v6.5h10.6v3H250.4z"/>
		<path d="M287.3,347.1h-3.8l-5.9-8h-3.8v8h-3.3v-20.6h7.5c2.1,0,3.8,0.6,5.1,1.8c1.3,1.2,1.9,2.7,1.9,4.5c0,1.4-0.3,2.5-1,3.6    c-0.7,1-1.7,1.8-2.9,2.3L287.3,347.1z M273.9,329.4v6.8h4.2c1.1,0,2-0.3,2.7-0.9c0.7-0.6,1-1.4,1-2.5c0-1-0.3-1.8-1-2.5    c-0.7-0.6-1.5-0.9-2.7-0.9H273.9z"/>
		<path d="M308.2,341c0,1.7-0.6,3.2-1.8,4.3c-1.2,1.1-2.8,1.7-4.8,1.7h-8.8v-20.6h7.2c1.9,0,3.4,0.5,4.5,1.5c1.1,1,1.7,2.3,1.7,4    s-0.6,2.9-1.7,3.9c1.2,0.4,2.2,1.1,2.8,2C307.9,338.7,308.2,339.8,308.2,341z M299.6,329.3h-3.7v5.6h3.7c1,0,1.8-0.2,2.3-0.7    c0.6-0.5,0.8-1.2,0.8-2.1c0-0.9-0.3-1.5-0.8-2C301.4,329.6,300.6,329.3,299.6,329.3z M304.9,341c0-1-0.3-1.8-1-2.4    c-0.6-0.6-1.5-0.9-2.7-0.9h-5.3v6.4h5.3c1.1,0,2-0.3,2.7-0.9S304.9,341.9,304.9,341z"/>
		<path d="M327.9,347.1l-1.5-3.4h-9.3l-1.5,3.4h-3.5l9.1-21h1.1l9.1,21H327.9z M325.2,340.8l-3.4-8.5l-3.5,8.5H325.2z"/>
		<path d="M336.9,347.1v-20.6h3.3v20.6H336.9z"/>
		<path d="M345.6,347.1v-2.8c1,0.1,1.8,0.2,2.1,0.2c1.1,0,1.9-0.2,2.4-0.6c0.5-0.4,0.8-1.1,0.8-2.2v-15.2h3.3v15.5    c0,1.8-0.5,3.2-1.5,4.1c-1,0.9-2.4,1.4-4.3,1.4C347.6,347.4,346.7,347.3,345.6,347.1z"/>
		<path d="M374.9,347.1l-1.5-3.4h-9.3l-1.5,3.4h-3.5l9.1-21h1.1l9.1,21H374.9z M372.2,340.8l-3.4-8.5l-3.5,8.5H372.2z"/>
		<path d="M397.6,326.4h3.3v21h-1.1l-12.6-14.3v14h-3.3v-21h1.2l12.5,14.3V326.4z"/>
		<path d="M408.7,347.1v-20.6h3.3v20.6H408.7z"/>
		<path d="M430.8,338.7v-12.3h3.3v12.5c0,1.7,0.5,3,1.4,4c0.9,1,2.2,1.4,3.8,1.4c1.5,0,2.8-0.5,3.7-1.4c0.9-1,1.4-2.3,1.4-4v-12.5    h3.3v12.3c0,2.7-0.8,4.8-2.4,6.3c-1.6,1.6-3.6,2.3-6.1,2.3c-2.5,0-4.6-0.8-6.1-2.3C431.6,343.5,430.8,341.4,430.8,338.7z"/>
		<path d="M469.1,326.4h3.3v21h-1.1l-12.6-14.3v14h-3.3v-21h1.2l12.5,14.3V326.4z"/>
		<path d="M480.2,347.1v-20.6h3.3v20.6H480.2z"/>
		<path d="M504.6,326.4h3.7l-9.1,21h-1.1l-9.1-21h3.7l5.9,14.4L504.6,326.4z"/>
		<path d="M513.8,347.1v-20.6h13.6v3h-10.3v5.3h7.7v2.9h-7.7v6.5h10.6v3H513.8z"/>
		<path d="M550.7,347.1h-3.8l-5.9-8h-3.8v8h-3.3v-20.6h7.5c2.1,0,3.8,0.6,5.1,1.8c1.3,1.2,1.9,2.7,1.9,4.5c0,1.4-0.3,2.5-1,3.6    c-0.7,1-1.7,1.8-2.9,2.3L550.7,347.1z M537.3,329.4v6.8h4.2c1.1,0,2-0.3,2.7-0.9c0.7-0.6,1-1.4,1-2.5c0-1-0.3-1.8-1-2.5    c-0.7-0.6-1.5-0.9-2.7-0.9H537.3z"/>
		<path d="M554.3,342.9l2.3-1.8c1.5,2.2,3.3,3.3,5.4,3.3c1.1,0,1.9-0.3,2.6-0.8c0.7-0.5,1-1.2,1-2.1c0-0.7-0.2-1.3-0.7-1.7    c-0.4-0.4-1.2-0.9-2.4-1.4l-2.3-1.1c-1.6-0.7-2.8-1.5-3.6-2.4c-0.8-0.9-1.2-2-1.2-3.3c0-1.6,0.6-3,1.9-4c1.3-1,2.8-1.6,4.6-1.6    c1.4,0,2.7,0.3,3.9,1c1.2,0.7,2.1,1.6,2.7,2.7l-2.3,1.8c-1.1-1.7-2.6-2.5-4.3-2.5c-0.9,0-1.7,0.2-2.3,0.7    c-0.6,0.4-0.9,1.1-0.9,1.8c0,0.4,0.1,0.7,0.1,0.9c0.1,0.2,0.3,0.5,0.6,0.7c0.3,0.3,0.5,0.4,0.7,0.5c0.1,0.1,0.5,0.3,1.2,0.6    c0.1,0.1,0.2,0.1,0.3,0.2l2.3,1.1c1.7,0.8,3,1.6,3.8,2.5c0.8,0.9,1.2,2,1.2,3.3c0,1.8-0.7,3.2-2,4.3c-1.3,1.1-3,1.7-5,1.7    c-1.7,0-3.2-0.4-4.5-1.2C556.2,345.4,555.1,344.3,554.3,342.9z"/>
		<path d="M575.7,347.1v-20.6h3.3v20.6H575.7z"/>
		<path d="M591.3,347.1v-17.7h-6.9v-3h17.2v3h-7v17.7H591.3z"/>
		<path d="M623.7,326.4l-7.1,12.3v8.3h-3.3v-8.3l-7.1-12.3h3.7l5.1,9l5.1-9H623.7z"/>
	</g>
	<path d="M57.7,219.8v-94.6h25.5v96.3c0,13.2,3.6,23.4,11,30.8c7.3,7.4,17,11.1,29,11.1c11.9,0,21.4-3.7,28.6-11.1   c7.2-7.4,10.8-17.6,10.8-30.8v-96.3h25.5v94.6c0,20.5-6.1,36.8-18.2,48.8c-12.1,12-27.7,18-46.8,18c-19.4,0-35.2-6-47.3-18   C63.8,256.6,57.7,240.3,57.7,219.8z"/>
	<path d="M413.5,125.2L344.6,284h27.2l11.3-26.5h71.5l11.3,26.5h27.4l-68.9-158.8H413.5z M392.3,235.7L419,170l26.5,65.7H392.3z"/>
	<path class="st1" d="M271.7,156.8c-5.7,16.8-10.1,32.5-9.6,46.2c14-5.7,28.7-10.2,42.8-14.5c1.9-0.6,3.7-1.1,5.5-1.7   c6.9-17.2,12.3-33.5,15.9-48.8C307,143.3,288.3,149.4,271.7,156.8z"/>
	<path class="st2" d="M226.6,253.6c-4.2,12.7,1,28.6,15.5,47.2c3.5-30.2,16.2-57.7,37.8-82C249.4,227,231.5,238.7,226.6,253.6z"/>
	<path class="st3" d="M262.1,203.1c-0.5-13.7,3.9-29.5,9.6-46.2c-22.7,10.2-41.3,23-51.9,39.2c-8.2,12.5-11.3,26.4-9.4,42.2   C223.3,222,241.9,211.3,262.1,203.1C262.1,203.1,262.1,203.1,262.1,203.1z"/>
	<path class="st4" d="M382.4,125.6l-56.1,12.5c-3.6,15.3-9.1,31.6-15.9,48.8C351.5,174.3,385.9,162.3,382.4,125.6z"/>
	<path class="st5" d="M338,73.2c-0.2,14.9-2.2,29.1-8.1,44.6c40.2-11,71-21.4,73.7-56.9L338,73.2z"/>
	<path class="st6" d="M275.6,131.3c4.5-12.7,9.5-27.4,12.5-41.9c-6.7,3.1-13,6.3-18.9,9.8c-32.2,19.1-52.5,44.6-61.7,77.7   c18.2-20.8,42-33.1,66.8-42L275.6,131.3z"/>
	<polygon points="535.2,261.2 623.5,132.2 623.5,125.2 506.1,125.2 506.1,148.1 583.8,148.1 495.7,277.1 495.7,277.8 498.4,284    623.7,284 623.7,261.2  "/>
	<path class="st4" d="M326.1,139.2c0.1-0.4,0.2-0.7,0.3-1.1c-19.3,5.1-38,11.3-54.6,18.7c-0.1,0.4-0.2,0.7-0.4,1.1   C288.2,150.6,306.8,144.4,326.1,139.2z"/>
	<path class="st3" d="M307.2,186.8c-14.8,4.5-30.2,9.3-45.1,15.1c0,0.4,0,0.8,0,1.2c14-5.7,28.7-10.2,42.8-14.5   c1.9-0.6,3.7-1.1,5.5-1.7c0.2-0.4,0.3-0.8,0.5-1.3C309.7,186,308.4,186.4,307.2,186.8z"/>
</g>
</svg>